<svg width="30" height="30" viewBox="0 0 30 30" fill="none" xmlns="http://www.w3.org/2000/svg">
<path d="M15 27C12.1042 26.2708 9.71354 24.6094 7.82812 22.0156C5.94271 19.4219 5 16.5417 5 13.375V5.75L15 2L25 5.75V13.375C25 15.1458 24.6979 16.849 24.0938 18.4844C23.4896 20.1198 22.625 21.5625 21.5 22.8125L17.5 18.8125C17.125 19.0417 16.724 19.2135 16.2969 19.3281C15.8698 19.4427 15.4375 19.5 15 19.5C13.625 19.5 12.4479 19.0104 11.4688 18.0312C10.4896 17.0521 10 15.875 10 14.5C10 13.125 10.4896 11.9479 11.4688 10.9688C12.4479 9.98958 13.625 9.5 15 9.5C16.375 9.5 17.5521 9.98958 18.5312 10.9688C19.5104 11.9479 20 13.125 20 14.5C20 14.9583 19.9427 15.401 19.8281 15.8281C19.7135 16.2552 19.5417 16.6667 19.3125 17.0625L21.1875 18.9375C21.6042 18.0833 21.9271 17.1875 22.1562 16.25C22.3854 15.3125 22.5 14.3542 22.5 13.375V7.46875L15 4.65625L7.5 7.46875V13.375C7.5 15.8958 8.20833 18.1875 9.625 20.25C11.0417 22.3125 12.8333 23.6875 15 24.375C15.5417 24.2083 16.0573 23.9948 16.5469 23.7344C17.0365 23.474 17.5208 23.1667 18 22.8125L19.75 24.5625C19.0625 25.125 18.3177 25.6146 17.5156 26.0312C16.7135 26.4479 15.875 26.7708 15 27ZM15 17C15.6875 17 16.276 16.7552 16.7656 16.2656C17.2552 15.776 17.5 15.1875 17.5 14.5C17.5 13.8125 17.2552 13.224 16.7656 12.7344C16.276 12.2448 15.6875 12 15 12C14.3125 12 13.724 12.2448 13.2344 12.7344C12.7448 13.224 12.5 13.8125 12.5 14.5C12.5 15.1875 12.7448 15.776 13.2344 16.2656C13.724 16.7552 14.3125 17 15 17Z" fill="#7C7C8A"/>
</svg>
