<svg width="50" height="50" viewBox="0 0 50 50" fill="none" xmlns="http://www.w3.org/2000/svg">
<path d="M25 24.9998C23.1667 24.9998 21.5972 24.3471 20.2917 23.0415C18.9861 21.7359 18.3334 20.1665 18.3334 18.3332C18.3334 16.4998 18.9861 14.9304 20.2917 13.6248C21.5972 12.3193 23.1667 11.6665 25 11.6665C26.8334 11.6665 28.4028 12.3193 29.7084 13.6248C31.0139 14.9304 31.6667 16.4998 31.6667 18.3332C31.6667 20.1665 31.0139 21.7359 29.7084 23.0415C28.4028 24.3471 26.8334 24.9998 25 24.9998ZM11.6667 38.3332V33.6665C11.6667 32.7221 11.9097 31.854 12.3959 31.0623C12.882 30.2707 13.5278 29.6665 14.3334 29.2498C16.0556 28.3887 17.8056 27.7429 19.5834 27.3123C21.3611 26.8818 23.1667 26.6665 25 26.6665C26.8334 26.6665 28.6389 26.8818 30.4167 27.3123C32.1945 27.7429 33.9445 28.3887 35.6667 29.2498C36.4722 29.6665 37.1181 30.2707 37.6042 31.0623C38.0903 31.854 38.3334 32.7221 38.3334 33.6665V38.3332H11.6667ZM15 34.9998H35V33.6665C35 33.3609 34.9236 33.0832 34.7709 32.8332C34.6181 32.5832 34.4167 32.3887 34.1667 32.2498C32.6667 31.4998 31.1528 30.9373 29.625 30.5623C28.0972 30.1873 26.5556 29.9998 25 29.9998C23.4445 29.9998 21.9028 30.1873 20.375 30.5623C18.8472 30.9373 17.3334 31.4998 15.8334 32.2498C15.5834 32.3887 15.382 32.5832 15.2292 32.8332C15.0764 33.0832 15 33.3609 15 33.6665V34.9998ZM25 21.6665C25.9167 21.6665 26.7014 21.3401 27.3542 20.6873C28.007 20.0346 28.3334 19.2498 28.3334 18.3332C28.3334 17.4165 28.007 16.6318 27.3542 15.979C26.7014 15.3262 25.9167 14.9998 25 14.9998C24.0834 14.9998 23.2986 15.3262 22.6459 15.979C21.9931 16.6318 21.6667 17.4165 21.6667 18.3332C21.6667 19.2498 21.9931 20.0346 22.6459 20.6873C23.2986 21.3401 24.0834 21.6665 25 21.6665Z" fill="#E8EAED"/>
</svg>
